<svg xmlns="http://www.w3.org/2000/svg" viewBox="0 0 858.9868774 240"><path d="M52.032 67.406H0v20.937h52.032c9.38 0 16.98 7.491 16.98 16.869 0 9.379-7.6 16.863-16.98 16.863H0v66.3h23.263v-44.2h28.77c22.623 0 40.964-15.756 40.964-38.386 0-22.625-18.341-38.383-40.965-38.383zm58.469 120.97h24.426V67.406h-24.426v120.97zm181.453 0h23.264V67.406h-23.264v120.97zm251.406-82.587c0-22.625-18.342-38.383-40.968-38.383H459.45v20.937h42.942c9.38 0 16.975 7.491 16.975 16.869 0 9.379-7.595 16.863-16.975 16.863H459.45v17.34l48.76 48.96h33.942l-44.218-44.2h4.458c22.626 0 40.968-15.756 40.968-38.386zm-388.615 22.098c0 34.818 28.22 60.489 63.038 60.489h41.603v-65.138h-52.343v20.937h29.08v22.1h-18.34c-21.574 0-39.055-17.398-39.055-38.97 0-21.566 17.481-38.962 39.055-38.962h41.603V67.406h-41.603c-34.818 0-63.038 25.668-63.038 60.481zm185.32 0c0 34.818 28.228 60.489 63.046 60.489h31.913v-22.1H403.11c-15.586 0-29.038-9.306-35.306-22.1h62.566v-20.938h-66.044c2.286-19.773 18.774-34.895 38.784-34.895h31.913V67.406H403.11c-34.818 0-63.045 25.668-63.045 60.481zm383.424 63.978h23.666l.003-33.119c28.426-3.596 53.757-22.584 53.757-49.863 0-30.424-31.318-50.447-63.471-50.447-4.032 0-10.466.25-13.955.862v77.217c-18.611-4.358-29.08-16.742-29.08-27.756v-14.6h-20.937v14.6c0 25.914 23.264 44.233 50.017 49.085v34.021zm23.675-111.743c20.605 3.325 32.762 16.773 32.762 28.637 0 11.851-12.162 25.288-32.766 28.605l.004-57.242zm109.234 15.2h-22.915c2.028 8.143 3.11 16.148 3.11 24.676 0 54.05-43.21 97.67-96.489 97.67-5.712 0-11.963-.492-16.615-1.462v22.612c4.652.774 10.919 1.182 16.615 1.182 65.807 0 118.883-53.822 118.883-120.002 0-8.456-.947-16.533-2.59-24.676zM731.63 22.33V0c-65.138 0-118.907 53.894-118.907 120.063 0 9.477 1.15 18.296 3.204 27.602h23.074c-2.537-9.306-3.943-18.037-3.943-27.602 0-54.043 43.066-97.734 96.572-97.734z" fill="#00559b"/></svg>